<mxfile host="app.diagrams.net" agent="Mozilla/5.0 (Windows NT 10.0; Win64; x64) AppleWebKit/537.36 (KHTML, like Gecko) Chrome/138.0.0.0 YaBrowser/25.8.0.0 Safari/537.36" version="28.2.5">
  <diagram name="Страница — 1" id="Nl8s0054if4FcjT9JYXd">
    <mxGraphModel dx="1378" dy="796" grid="1" gridSize="10" guides="1" tooltips="1" connect="1" arrows="1" fold="1" page="1" pageScale="1" pageWidth="827" pageHeight="1169" math="0" shadow="0">
      <root>
        <mxCell id="0" />
        <mxCell id="1" parent="0" />
        <mxCell id="8p5CYFhze-HGaALX0gIf-3" value="game" style="rounded=0;whiteSpace=wrap;html=1;" vertex="1" parent="1">
          <mxGeometry x="210" y="160" width="90" height="40" as="geometry" />
        </mxCell>
        <mxCell id="8p5CYFhze-HGaALX0gIf-4" value="gamename" style="ellipse;whiteSpace=wrap;html=1;" vertex="1" parent="1">
          <mxGeometry x="90" y="110" width="90" height="60" as="geometry" />
        </mxCell>
        <mxCell id="8p5CYFhze-HGaALX0gIf-5" value="rating" style="ellipse;whiteSpace=wrap;html=1;" vertex="1" parent="1">
          <mxGeometry x="345" y="150" width="80" height="60" as="geometry" />
        </mxCell>
        <mxCell id="8p5CYFhze-HGaALX0gIf-6" value="date release" style="ellipse;whiteSpace=wrap;html=1;" vertex="1" parent="1">
          <mxGeometry x="260" y="60" width="80" height="60" as="geometry" />
        </mxCell>
        <mxCell id="8p5CYFhze-HGaALX0gIf-7" value="developer" style="ellipse;whiteSpace=wrap;html=1;" vertex="1" parent="1">
          <mxGeometry x="334" y="220" width="80" height="50" as="geometry" />
        </mxCell>
        <mxCell id="8p5CYFhze-HGaALX0gIf-8" value="&lt;u&gt;gameid&lt;/u&gt;" style="ellipse;whiteSpace=wrap;html=1;" vertex="1" parent="1">
          <mxGeometry x="90" y="180" width="90" height="50" as="geometry" />
        </mxCell>
        <mxCell id="8p5CYFhze-HGaALX0gIf-9" value="publisher" style="ellipse;whiteSpace=wrap;html=1;" vertex="1" parent="1">
          <mxGeometry x="250" y="250" width="90" height="50" as="geometry" />
        </mxCell>
        <mxCell id="8p5CYFhze-HGaALX0gIf-12" value="popular user-defined tags" style="ellipse;whiteSpace=wrap;html=1;" vertex="1" parent="1">
          <mxGeometry x="140" y="240" width="100" height="50" as="geometry" />
        </mxCell>
        <mxCell id="8p5CYFhze-HGaALX0gIf-14" value="&lt;u&gt;genreid&lt;/u&gt;" style="ellipse;whiteSpace=wrap;html=1;" vertex="1" parent="1">
          <mxGeometry x="520" y="91.88" width="90" height="50" as="geometry" />
        </mxCell>
        <mxCell id="8p5CYFhze-HGaALX0gIf-15" value="genre" style="rounded=0;whiteSpace=wrap;html=1;" vertex="1" parent="1">
          <mxGeometry x="570" y="163.13" width="90" height="40" as="geometry" />
        </mxCell>
        <mxCell id="8p5CYFhze-HGaALX0gIf-17" value="genrename" style="ellipse;whiteSpace=wrap;html=1;" vertex="1" parent="1">
          <mxGeometry x="630" y="91.88" width="80" height="50" as="geometry" />
        </mxCell>
        <mxCell id="8p5CYFhze-HGaALX0gIf-18" value="descriptiongenre" style="ellipse;whiteSpace=wrap;html=1;" vertex="1" parent="1">
          <mxGeometry x="690" y="158.13" width="100" height="50" as="geometry" />
        </mxCell>
        <mxCell id="8p5CYFhze-HGaALX0gIf-19" value="description" style="ellipse;whiteSpace=wrap;html=1;" vertex="1" parent="1">
          <mxGeometry x="160" y="60" width="90" height="60" as="geometry" />
        </mxCell>
        <mxCell id="8p5CYFhze-HGaALX0gIf-23" value="user" style="rounded=0;whiteSpace=wrap;html=1;" vertex="1" parent="1">
          <mxGeometry x="125" y="570" width="90" height="40" as="geometry" />
        </mxCell>
        <mxCell id="8p5CYFhze-HGaALX0gIf-24" value="&lt;u&gt;userid&lt;/u&gt;" style="ellipse;whiteSpace=wrap;html=1;" vertex="1" parent="1">
          <mxGeometry x="20" y="520" width="90" height="50" as="geometry" />
        </mxCell>
        <mxCell id="8p5CYFhze-HGaALX0gIf-26" value="username" style="ellipse;whiteSpace=wrap;html=1;" vertex="1" parent="1">
          <mxGeometry x="130" y="480" width="80" height="50" as="geometry" />
        </mxCell>
        <mxCell id="8p5CYFhze-HGaALX0gIf-27" value="usermail" style="ellipse;whiteSpace=wrap;html=1;" vertex="1" parent="1">
          <mxGeometry x="220" y="500" width="90" height="50" as="geometry" />
        </mxCell>
        <mxCell id="8p5CYFhze-HGaALX0gIf-28" value="type" style="shape=parallelogram;perimeter=parallelogramPerimeter;whiteSpace=wrap;html=1;fixedSize=1;" vertex="1" parent="1">
          <mxGeometry x="190" y="635" width="90" height="40" as="geometry" />
        </mxCell>
        <mxCell id="8p5CYFhze-HGaALX0gIf-29" value="registrationdate" style="ellipse;whiteSpace=wrap;html=1;" vertex="1" parent="1">
          <mxGeometry x="250" y="566.25" width="90" height="47.5" as="geometry" />
        </mxCell>
        <mxCell id="8p5CYFhze-HGaALX0gIf-30" value="catalog" style="rounded=0;whiteSpace=wrap;html=1;" vertex="1" parent="1">
          <mxGeometry x="640" y="410" width="120" height="60" as="geometry" />
        </mxCell>
        <mxCell id="8p5CYFhze-HGaALX0gIf-31" value="userlibrary" style="rounded=0;whiteSpace=wrap;html=1;" vertex="1" parent="1">
          <mxGeometry x="480" y="566" width="120" height="60" as="geometry" />
        </mxCell>
        <mxCell id="8p5CYFhze-HGaALX0gIf-32" value="platform" style="ellipse;whiteSpace=wrap;html=1;" vertex="1" parent="1">
          <mxGeometry x="349" y="81.88" width="71" height="60" as="geometry" />
        </mxCell>
      </root>
    </mxGraphModel>
  </diagram>
</mxfile>
